# xmcd
#
# Track frame offsets:
# 150
# 19453
# 34558
# 51350
# 69805
# 88329
# 101992
# 121805
# 137157
# 154072
# 170631
# 186539
#
# Disc length: 2771 seconds
#
# Revision: 0
# Processed by: cddbd v1.5.2PL0 Copyright (c) Steve Scherf et al.
# Submitted via: Axialis_AX_CDPlayer 2.6
#
DISCID=ac0ad10c
DTITLE=Billy Ray Cyrus - Back To Tennessee
DYEAR=1900
DGENRE=
TTITLE0=Back To Tennessee
TTITLE1=Thrillbilly
TTITLE2=He's Mine
TTITLE3=Somebody Said A Prayer
TTITLE4=A Good Day
TTITLE5=I Could Be The One
TTITLE6=Like Nothng Else
TTITLE7=Country As Country Can Be
TTITLE8=Love Is The Lesson
TTITLE9=Give It To Somebody
TTITLE10=Real Gone
TTITLE11=Butterfly Fly Away (Ft. Miley Cyrus) [Bonus Track]
EXTD=www.brcspirit.com
EXTT0=
EXTT1=
EXTT2=
EXTT3=
EXTT4=
EXTT5=
EXTT6=
EXTT7=
EXTT8=
EXTT9=
EXTT10=
EXTT11=
PLAYORDER=
